# xmcd
#
# Track frame offsets:
#	150
#	12547
#	22725
#	36697
#	54510
#	65160
#	82325
#	95975
#	112485
#	123547
#	138525
#	150800
#	166700
#
# Disc length: 2485 seconds
#
# Revision: 2
# Processed by: cddbd v1.4PL0 Copyright (c) Steve Scherf et al.
# Submitted via: audiograbber 1.80.04
#
DISCID=bc09b30d
DTITLE=Rolf Raggenbass and Ethno Conutry Rock Connection - Featuring Carlo Brunne
DTITLE=r and Gäste
DYEAR=2000
DGENRE=
TTITLE0=Ys-chalt's Herz
TTITLE1=Hallo Tröbel
TTITLE2=Liebi ohne Änd
TTITLE3=Dänksch Du na draa?
TTITLE4=Rosetta
TTITLE5=Danke Tante Jukebox
TTITLE6=Texaner Art
TTITLE7=Goodbye Mexico
TTITLE8=Oh Julie
TTITLE9=Ab uf d' Schtraass
TTITLE10=Ich ghöör Dich chlopfe
TTITLE11=Schnee in Ontario
TTITLE12=D'Games vo de Lüüt
EXTD=
EXTT0=
EXTT1=
EXTT2=
EXTT3=
EXTT4=
EXTT5=
EXTT6=
EXTT7=
EXTT8=
EXTT9=
EXTT10=
EXTT11=
EXTT12=
PLAYORDER=
